<?xml version="1.0" encoding="utf-8"?>
<svg version="1.1" id="レイヤー_1" xmlns="http://www.w3.org/2000/svg" xmlns:xlink="http://www.w3.org/1999/xlink" x="0px"
	 y="0px" viewBox="0 0 1280 640" style="enable-background:new 0 0 1280 640;" xml:space="preserve">
<style type="text/css">
	.st0{fill:#040000;}
	.st1{fill:#FFFFFF;}
	.st2{fill:none;stroke:#FFFFFF;stroke-width:4;stroke-miterlimit:10;}
	.st3{font-family:'DejaVuSans';}
	.st4{font-size:112px;}
</style>
<g>
	<circle class="st0" cx="320" cy="320" r="241"/>
	<polygon class="st1" points="274.46,302.92 320,231.36 365.54,302.92 "/>
	<path class="st0" d="M403.5,338.98"/>
	<g>
		<polyline class="st1" points="380.72,337.08 259.28,337.08 268.59,351.71 371.41,351.71 380.72,337.08 "/>
		<polyline class="st1" points="355.37,376.93 345.71,392.11 294.29,392.11 284.63,376.93 "/>
		<polyline class="st1" points="329.66,417.33 320,432.51 310.34,417.33 "/>
	</g>
	<circle class="st2" cx="320" cy="320" r="227.72"/>
	<polygon class="st1" points="187.17,302.92 320,113.16 452.83,302.92 424.37,302.92 320,158.15 215.63,302.92 "/>
	<polygon class="st1" points="187.17,337.08 320,526.84 452.83,337.08 424.37,337.08 320,481.85 215.63,337.08 "/>
</g>
<text transform="matrix(1 0 0 1 591.7497 302.1689)"><tspan x="0" y="0" class="st3 st4">Avern@k!s</tspan>
<tspan x="90.02" y="128" class="st3 st4">ENGINE</tspan></text>
</svg>
